{
	"asset":{
		"generator":"Khronos glTF Blender I/O v4.4.56",
		"version":"2.0"
	},
	"scene":0,
	"scenes":[
		{
			"name":"Scene",
			"nodes":[
				0
			]
		}
	],
	"nodes":[
		{
			"mesh":0,
			"name":"Simple House M",
			"rotation":[
				0,
				0.7071067094802856,
				0,
				0.7071068286895752
			],
			"scale":[
				0.009999999776482582,
				0.009999999776482582,
				0.009999999776482582
			],
			"translation":[
				-0.06155269593000412,
				0,
				0.11272622644901276
			]
		}
	],
	"meshes":[
		{
			"name":"Mesh",
			"primitives":[
				{
					"attributes":{
						"POSITION":0,
						"NORMAL":1,
						"TEXCOORD_0":2
					},
					"indices":3
				}
			]
		}
	],
	"accessors":[
		{
			"bufferView":0,
			"componentType":5126,
			"count":1066,
			"max":[
				11.774248123168945,
				21.76587677001953,
				11.774248123168945
			],
			"min":[
				-11.774248123168945,
				0,
				-11.774248123168945
			],
			"type":"VEC3"
		},
		{
			"bufferView":1,
			"componentType":5126,
			"count":1066,
			"type":"VEC3"
		},
		{
			"bufferView":2,
			"componentType":5126,
			"count":1066,
			"type":"VEC2"
		},
		{
			"bufferView":3,
			"componentType":5123,
			"count":1932,
			"type":"SCALAR"
		}
	],
	"bufferViews":[
		{
			"buffer":0,
			"byteLength":12792,
			"byteOffset":0,
			"target":34962
		},
		{
			"buffer":0,
			"byteLength":12792,
			"byteOffset":12792,
			"target":34962
		},
		{
			"buffer":0,
			"byteLength":8528,
			"byteOffset":25584,
			"target":34962
		},
		{
			"buffer":0,
			"byteLength":3864,
			"byteOffset":34112,
			"target":34963
		}
	],
	"buffers":[
		{
			"byteLength":37976,
			"uri":"house.bin"
		}
	]
}
