<?xml version="1.0" encoding="UTF-8" standalone="no"?>
<!-- Uploaded to: SVG Repo, www.svgrepo.com, Generator: SVG Repo Mixer Tools -->

<svg
   fill="#000000"
   height="800"
   width="800"
   version="1.1"
   id="Layer_1"
   viewBox="0 0 490.667 490.667"
   xml:space="preserve"
   xmlns="http://www.w3.org/2000/svg"
   xmlns:svg="http://www.w3.org/2000/svg"><defs
   id="defs5" />
<g
   id="g5">
	<g
   id="g4">
		<g
   id="g3">
			<path
   d="M 396.457,469.483 C 357.822,462.891 327.23,442.88 297.641,423.531 266.558,403.2 237.203,384 202.665,384 c -34.539,0 -63.893,19.2 -94.976,39.531 -29.589,19.349 -60.181,39.381 -98.816,45.952 -5.461,0.917 -9.301,5.888 -8.832,11.413 0.448,5.525 5.077,9.771 10.624,9.771 49.685,0 85.333,-13.141 116.779,-24.747 26.112,-9.621 48.64,-17.92 75.221,-17.92 25.664,0 45.952,7.893 69.461,17.024 30.933,12.011 66.005,25.643 122.539,25.643 5.547,0 10.176,-4.245 10.624,-9.771 0.469,-5.525 -3.371,-10.475 -8.832,-11.413 z"
   id="path1"
   style="display:inline;fill:#c87137;fill-opacity:1" />
			<path
   d="m 287.998,42.667 c -64.704,0 -117.333,52.629 -117.333,117.333 0,5.888 4.779,10.667 10.667,10.667 5.888,0 10.667,-4.779 10.667,-10.667 0,-52.928 43.072,-96 96,-96 5.888,0 10.667,-4.779 10.667,-10.667 0,-5.888 -4.78,-10.666 -10.668,-10.666 z"
   id="path2"
   style="display:inline;fill:#ffffff;fill-opacity:1" />
			<path
   d="m 458.665,128 c -4.8,0 -9.323,1.152 -13.419,3.051 C 431.571,56.619 366.334,0 287.998,0 c -88.235,0 -160,71.765 -160,160 0,88.235 71.765,160 160,160 78.336,0 143.573,-56.619 157.248,-131.051 4.096,1.899 8.619,3.051 13.419,3.051 3.755,0 7.317,-0.768 10.667,-1.963 v 204.629 c 0,5.888 4.779,10.667 10.667,10.667 5.888,0 10.667,-4.779 10.667,-10.667 V 160 c -10e-4,-17.643 -14.359,-32 -32.001,-32 z M 287.998,298.667 c -76.459,0 -138.667,-62.208 -138.667,-138.667 0,-76.459 62.208,-138.667 138.667,-138.667 76.459,0 138.667,62.208 138.667,138.667 0,76.459 -62.208,138.667 -138.667,138.667 z"
   id="path3"
   style="fill:#d4aa00" />
		</g>
	</g>
</g>
<path
   style="fill:#80e5ff;fill-opacity:1;stroke-width:0.508618;stroke-dasharray:none"
   d="m 272.59278,297.45676 c -25.16909,-2.82976 -50.23714,-13.31868 -71.03756,-29.72339 -6.8563,-5.40737 -18.50906,-17.45888 -24.12386,-24.94936 -30.76504,-41.04243 -36.32384,-95.48743 -14.43613,-141.3928 7.42515,-15.572846 15.35052,-26.803036 27.46454,-38.917065 23.22096,-23.220951 52.35986,-36.976041 85.07414,-40.159449 32.95206,-3.206549 65.78617,5.955555 94.19444,26.284223 6.81719,4.878309 19.92923,17.411531 25.64308,24.511083 34.25776,42.565848 40.51069,100.611378 16.03168,148.821238 -24.01721,47.3004 -71.7882,76.6337 -124.05124,76.1724 -5.37495,-0.0474 -12.01654,-0.33853 -14.75909,-0.64688 z M 186.84316,169.53043 c 2.56559,-1.32672 4.72129,-4.54665 5.02238,-7.50183 0.13796,-1.35415 0.57969,-5.99565 0.98161,-10.31444 2.08905,-22.44778 10.95403,-41.8321 26.42009,-57.770608 17.02045,-17.540395 36.9455,-27.025215 61.21074,-29.137831 12.05673,-1.049702 12.45143,-1.142395 14.96725,-3.515119 4.64917,-4.384724 4.7081,-10.92091 0.13992,-15.518089 -3.49047,-3.512617 -6.27227,-3.989141 -17.22078,-2.949933 -15.70199,1.490396 -27.81087,4.767344 -41.0092,11.098057 -12.71791,6.100273 -21.60866,12.476648 -32.29045,23.158444 -7.06561,7.065605 -10.59241,11.222536 -14.4219,16.998668 -8.69441,13.114021 -14.87918,27.655031 -17.74519,41.720641 -1.73458,8.51288 -2.97727,21.88441 -2.39481,25.76853 0.54992,3.66714 4.03676,7.96109 7.25972,8.94017 2.52611,0.76738 6.54358,0.3353 9.08062,-0.97666 z"
   id="path7" /></svg>
